<svg width="24" height="24" viewBox="0 0 24 24" fill="none" xmlns="http://www.w3.org/2000/svg">
<path d="M22.3092 21.8055L21.3059 7.75671C21.2293 6.68428 20.3372 5.85364 19.2625 5.85364H17.7182V5.56098C17.7182 2.48955 15.2287 0 12.1572 0C9.19817 0 6.46337 2.35669 6.59623 5.56098C6.6003 5.65816 6.60386 5.7559 6.60737 5.85364H5.05202C3.97728 5.85364 3.08518 6.68428 3.00852 7.75665L2.00518 21.8055C1.96484 22.3727 2.16152 22.9311 2.54897 23.3473C2.93706 23.7635 3.4797 24 4.04868 24H20.2657C20.8347 24 21.3773 23.7635 21.7654 23.3473C22.153 22.9311 22.3497 22.3728 22.3092 21.8055ZM8.35234 5.56098C8.35234 3.45952 10.0558 1.7561 12.1572 1.7561C14.2587 1.7561 15.9621 3.45952 15.9621 5.56098V5.85364H8.35234V5.56098ZM20.4799 22.1509C20.4243 22.21 20.3471 22.2439 20.2657 22.2439H4.04868C3.96735 22.2439 3.89002 22.21 3.83449 22.1509C3.77884 22.0912 3.7508 22.0115 3.75662 21.9302L4.7605 7.88139C4.77104 7.72861 4.89869 7.6098 5.05207 7.6098H6.64716C6.67235 9.94832 6.59623 12.0001 6.59623 12.0001C6.59623 12.4847 6.9896 12.8781 7.47429 12.8781C7.95897 12.8781 8.35234 12.4847 8.35234 12.0001V7.6098H15.9621V12.0001C15.9621 12.4847 16.3554 12.8781 16.8401 12.8781C17.3248 12.8781 17.7182 12.4847 17.7182 12.0001V7.6098H19.2625C19.4158 7.6098 19.5434 7.72861 19.5539 7.88139L20.5579 21.9302C20.5637 22.0115 20.5356 22.0912 20.4799 22.1509Z" fill="white"/>
</svg>
