<svg width="20" height="20" viewBox="0 0 20 20" fill="none" xmlns="http://www.w3.org/2000/svg">
<g clip-path="url(#clip0_1159_70156)">
<path d="M17.0899 12.4344L17.0899 12.4345C17.1297 12.7905 17.4514 13.0483 17.8079 13.0086L17.7969 12.9092L17.808 13.0086C18.1639 12.9688 18.4218 12.6472 18.3821 12.2909L17.7504 6.60457C17.6249 5.47631 16.6744 4.62539 15.5389 4.62539H13.6609V3.70042C13.6609 3.70041 13.6609 3.70041 13.6609 3.7004C13.6613 1.6047 11.9566 -0.1 9.86127 -0.1C7.76594 -0.1 6.06123 1.60471 6.06123 3.70003V4.62502H4.18328C3.04814 4.62502 2.0973 5.47592 1.97214 6.6042C1.97214 6.60421 1.97214 6.60422 1.97214 6.60422L0.74684 17.6294L0.746837 17.6294C0.677174 18.2575 0.87886 18.8878 1.30027 19.359C1.72173 19.8302 2.32605 20.1 2.95797 20.1H12.2238C12.582 20.1 12.8736 19.8085 12.8736 19.4502C12.8736 19.092 12.5821 18.8001 12.2238 18.8001H2.95834C2.69544 18.8001 2.44435 18.6879 2.26884 18.4919C2.09337 18.296 2.00957 18.0341 2.03859 17.7728L3.2639 6.74802C3.31603 6.27883 3.71117 5.92494 4.18328 5.92494H6.06123V7.63767C6.06123 7.99594 6.35275 8.28745 6.71101 8.28745C7.06928 8.28745 7.36079 7.99594 7.36079 7.63767V5.92494H12.3614V7.63767C12.3614 7.99594 12.6529 8.28745 13.0112 8.28745C13.3694 8.28745 13.6609 7.99594 13.6609 7.63767V5.92494H15.5389C16.011 5.92494 16.4061 6.27883 16.4583 6.74802L17.0899 12.4344ZM7.36116 3.70003C7.36116 2.3216 8.48284 1.19992 9.86127 1.19992C11.2397 1.19992 12.3614 2.3216 12.3614 3.70003V4.62502H7.36116V3.70003Z" fill="white" stroke="white" stroke-width="0.2"/>
<path d="M18.5237 16.4373H16.811V14.7246C16.811 14.3663 16.5195 14.0748 16.1612 14.0748C15.8029 14.0748 15.5114 14.3663 15.5114 14.7246V16.4373H13.7987C13.4404 16.4373 13.1489 16.7288 13.1489 17.0871C13.1489 17.4454 13.4404 17.7369 13.7987 17.7369H15.5114V19.4496C15.5114 19.8079 15.8029 20.0994 16.1612 20.0994C16.5195 20.0994 16.811 19.8079 16.811 19.4496V17.7372H18.5237C18.882 17.7372 19.1735 17.4457 19.1735 17.0875C19.1735 16.7293 18.8821 16.4373 18.5237 16.4373Z" fill="white" stroke="white" stroke-width="0.2"/>
</g>
<defs>
<clipPath id="clip0_1159_70156">
<rect width="20" height="20" fill="white"/>
</clipPath>
</defs>
</svg>
