<svg width="173" height="173" viewBox="0 0 173 173" fill="none" xmlns="http://www.w3.org/2000/svg">
<g filter="url(#filter0_d_18_58)">
<circle cx="79.5" cy="77.5" r="56.5" fill="white"/>
</g>
<circle cx="80" cy="72" r="18" fill="#FFE6CE"/>
<path d="M108.5 62.4815C108.005 62.0147 107.566 61.6186 107.17 61.2507C104.114 58.4214 104.114 58.4214 103.195 54.3614L103.166 54.2624C103.053 53.7672 102.926 53.2155 102.784 52.6072C101.978 49.1555 99.0498 46.694 95.499 46.4959C94.8341 46.4535 94.2258 46.4252 93.6882 46.3969C89.5292 46.1847 89.5292 46.1847 86.2047 43.6808C85.7803 43.3554 85.2994 42.9876 84.7618 42.5915C81.9183 40.4695 78.0988 40.4695 75.2553 42.5915C74.7178 42.9876 74.2368 43.3554 73.8124 43.6808C70.4879 46.1988 70.4879 46.1988 66.3289 46.3969C65.7913 46.4252 65.1971 46.4535 64.5181 46.4959C60.9673 46.694 58.0532 49.1413 57.2327 52.6072C57.0912 53.2438 56.9497 53.8097 56.8365 54.319L56.8224 54.3614C55.9029 58.4214 55.9029 58.4214 52.8472 61.2507L52.8189 61.279C52.437 61.6327 51.9984 62.043 51.5175 62.4956C48.9286 64.9288 48.2638 68.6918 49.8623 71.8606C50.1594 72.4548 50.4423 72.9924 50.6828 73.4733C52.5784 77.1797 52.5784 77.1797 52.0692 81.3105C51.9984 81.8481 51.9277 82.4422 51.8428 83.1071C51.4184 86.6296 53.3282 89.9399 56.5961 91.3404C57.2185 91.6092 57.7702 91.8355 58.2653 92.0477C59.9346 92.7551 60.8966 93.1653 61.6039 93.6463L55.337 107.1C55.0541 107.694 55.139 108.401 55.5351 108.925C55.9312 109.448 56.5961 109.703 57.2468 109.589L63.2732 108.543L66.343 113.819C66.6542 114.357 67.2484 114.696 67.8708 114.696C67.8991 114.696 67.9274 114.696 67.9557 114.696C68.6206 114.668 69.2006 114.272 69.4835 113.678L75.0714 101.682C75.4109 101.582 75.7222 101.483 76.0192 101.384C79.9944 100.154 79.9944 100.154 83.9696 101.384C84.3232 101.498 84.7052 101.611 85.1154 101.738L90.675 113.678C90.958 114.272 91.538 114.668 92.2029 114.696C92.2312 114.696 92.2594 114.696 92.2736 114.696C92.896 114.696 93.4902 114.357 93.8014 113.819L96.8712 108.543L102.898 109.589C103.548 109.703 104.199 109.448 104.609 108.925C105.005 108.401 105.09 107.708 104.807 107.1L98.4981 93.5614C99.1771 93.1087 100.125 92.7126 101.709 92.0477L101.738 92.0336C102.233 91.8214 102.77 91.595 103.379 91.3404C106.646 89.9399 108.556 86.6296 108.132 83.1071C108.047 82.4422 107.976 81.8481 107.905 81.3105C107.382 77.1797 107.382 77.1797 109.292 73.4733L109.334 73.3743C109.561 72.9216 109.829 72.4265 110.112 71.8606C111.739 68.6635 111.088 64.9006 108.5 62.4815ZM104.425 81.7208C104.496 82.2442 104.567 82.8383 104.638 83.4891C104.878 85.4696 103.845 87.2662 102.006 88.0443C101.398 88.313 100.846 88.5394 100.365 88.7374C95.697 90.7038 95.4141 90.9443 92.6697 95.2024C92.3868 95.6409 92.0614 96.1361 91.7077 96.6878C90.6185 98.3571 88.6662 99.0644 86.7564 98.4844C86.134 98.3005 85.5681 98.1166 85.0589 97.961H85.0447C82.6681 97.2254 81.3666 96.8434 80.0227 96.8434C78.6788 96.8434 77.3773 97.2254 75.0007 97.961L74.9582 97.9751C74.4631 98.1307 73.9114 98.3005 73.3031 98.4844C71.3933 99.0644 69.4552 98.3571 68.3518 96.6878C67.984 96.1361 67.6728 95.6409 67.3757 95.1883C64.6313 90.9443 64.3484 90.7038 59.68 88.7374C59.1849 88.5252 58.6473 88.2989 58.039 88.0443C56.2 87.2521 55.1673 85.4696 55.4078 83.4891C55.4785 82.8383 55.5634 82.2583 55.6199 81.7349V81.7066C56.2565 76.6846 56.1858 76.3168 53.8799 71.8182C53.6394 71.3514 53.3707 70.8138 53.0736 70.2196C52.1682 68.4372 52.536 66.4001 53.9931 65.042C54.4741 64.5893 54.8985 64.1932 55.2804 63.8396L55.2946 63.8254C59.001 60.3878 59.1849 60.0624 60.3166 55.1253V55.1112C60.4298 54.6019 60.5712 54.0219 60.7127 53.3853C61.1654 51.4472 62.7498 50.1174 64.7445 50.0043C65.3811 49.976 65.9469 49.9477 66.4562 49.9194H66.5269C71.5772 49.6647 71.9309 49.5374 75.9626 46.4818L76.0334 46.4252C76.4436 46.114 76.8822 45.7745 77.3914 45.4066C78.1978 44.8125 79.1032 44.5154 80.0227 44.5154C80.9422 44.5154 81.8617 44.8125 82.654 45.4066C83.1915 45.8027 83.6584 46.1564 84.0828 46.4818C88.1145 49.5374 88.4682 49.6647 93.5185 49.9194H93.5892C94.0985 49.9477 94.6644 49.976 95.3009 50.0043C97.2956 50.1174 98.88 51.4472 99.3327 53.3853C99.4883 54.0219 99.6156 54.6019 99.7288 55.1112V55.1253C100.861 60.0624 101.044 60.3878 104.751 63.8254L104.807 63.882C105.189 64.2357 105.6 64.6176 106.066 65.0562C107.524 66.4284 107.877 68.4513 106.986 70.2338C106.689 70.8279 106.42 71.3514 106.18 71.8323C103.874 76.3309 103.803 76.6988 104.425 81.7208ZM94.6644 98.64C95.0322 98.0742 95.3575 97.579 95.6546 97.1263C95.7819 96.9283 95.9092 96.7302 96.0366 96.5322L100.21 105.487L96.3195 104.808C95.598 104.681 94.8624 105.02 94.4804 105.657L92.4999 109.08L89.2745 102.134C91.4389 101.809 93.4195 100.55 94.6644 98.64ZM64.122 96.6878C64.221 96.8293 64.3059 96.9707 64.4049 97.1263L64.4191 97.1546C64.702 97.5932 65.0274 98.0883 65.3811 98.6542C66.6542 100.606 68.6913 101.88 70.9548 102.177L67.7294 109.094L65.7489 105.671C65.4235 105.119 64.8435 104.794 64.221 104.794C64.122 104.794 64.023 104.808 63.924 104.822L60.0337 105.501L64.122 96.6878Z" fill="#FF7A00"/>
<path d="M80.0226 52.1546C69.2996 52.1546 60.5712 60.883 60.5712 71.606C60.5712 82.3291 69.2996 91.0575 80.0226 91.0575C90.7457 91.0575 99.4741 82.3291 99.4741 71.606C99.4741 60.883 90.7457 52.1546 80.0226 52.1546ZM80.0226 62.5947C82.4841 62.5947 84.4929 64.6035 84.4929 67.065C84.4929 69.5265 82.4841 71.5353 80.0226 71.5353C77.5611 71.5353 75.5523 69.5265 75.5523 67.065C75.5523 64.6035 77.5611 62.5947 80.0226 62.5947ZM80.0226 75.0861C85.1437 75.0861 89.4584 78.6652 90.4062 83.6589C87.5203 86.1487 83.8422 87.5209 80.0226 87.5209C76.2031 87.5209 72.525 86.1487 69.6391 83.6447C70.5869 78.6652 74.9016 75.0861 80.0226 75.0861ZM88.0437 67.065C88.0437 62.6513 84.4505 59.0581 80.0368 59.0581C75.6231 59.0581 72.0299 62.6513 72.0299 67.065C72.0299 69.2153 72.8786 71.2241 74.3782 72.7236C70.9406 74.2232 68.2386 77.0525 66.8805 80.5466C65.0698 77.9013 64.1219 74.8456 64.1219 71.606C64.1219 62.8352 71.2659 55.6912 80.0368 55.6912C88.8076 55.6912 95.9516 62.8352 95.9516 71.606C95.9516 74.8315 95.0038 77.9013 93.193 80.5466C91.835 77.0525 89.133 74.2373 85.6954 72.7236C87.1949 71.2382 88.0437 69.2294 88.0437 67.065Z" fill="#FF7A00"/>
<defs>
<filter id="filter0_d_18_58" x="0" y="0" width="173" height="173" filterUnits="userSpaceOnUse" color-interpolation-filters="sRGB">
<feFlood flood-opacity="0" result="BackgroundImageFix"/>
<feColorMatrix in="SourceAlpha" type="matrix" values="0 0 0 0 0 0 0 0 0 0 0 0 0 0 0 0 0 0 127 0" result="hardAlpha"/>
<feOffset dx="7" dy="9"/>
<feGaussianBlur stdDeviation="15"/>
<feComposite in2="hardAlpha" operator="out"/>
<feColorMatrix type="matrix" values="0 0 0 0 0.679167 0 0 0 0 0.354348 0 0 0 0 0 0 0 0 0.2 0"/>
<feBlend mode="normal" in2="BackgroundImageFix" result="effect1_dropShadow_18_58"/>
<feBlend mode="normal" in="SourceGraphic" in2="effect1_dropShadow_18_58" result="shape"/>
</filter>
</defs>
</svg>
